The Simpsons.1-23.sezon\\\\2X2, RenTV 
Format : AVI 
Format/Info : Audio Video Interleave 
Format profile : OpenDML 
File size : 215 MiB 
Duration : 23mn 10s 
Overall bit rate : 1 298 Kbps 
Writing application : AVI-Mux GUI 1.17.8.3, Feb 16 201019:42:50 

Video 
ID : 0 
Format : MPEG-4 Visual 
Format profile : Advanced Simple@L5 
Format settings, BVOP : Yes 
Format settings, QPel : No 
Format settings, GMC : No warppoints 
Format settings, Matrix : Default (MPEG) 
Codec ID : XVID 
Codec ID/Hint : XviD 
Duration : 23mn 10s 
Bit rate : 1 099 Kbps 
Width : 640 pixels 
Height : 480 pixels 
Display aspect ratio : 4:3 
Frame rate : 29.970 fps 
Resolution : 8 bits 
Colorimetry : 4:2:0 
Scan type : Progressive 
Bits/(Pixel*Frame) : 0.119 
Stream size : 182 MiB (85%) 
Writing library : XviD 1.2.1 (UTC 2008-12-04) 

Audio 
ID : 1 
Format : AC-3 
Format/Info : Audio Coding 3 
Codec ID : 2000 
Duration : 23mn 10s 
Bit rate mode : Constant 
Bit rate : 192 Kbps 
Channel(s) : 2 channels 
Channel positions : Front: L R 
Sampling rate : 48.0 KHz 
Stream size : 31.8 MiB (15%) 
Alignment : Aligned on interleaves 
Interleave, duration : 64 ms (1.92 video frames) 
Interleave, preload duration : 1920 ms 